<svg width="741" height="834" viewBox="0 0 741 834" fill="none" xmlns="http://www.w3.org/2000/svg">
<g clip-path="url(#clip0_2533_129986)">
<path d="M420.078 642.611C597.318 642.611 741 498.758 741 321.306C741 143.853 597.318 0 420.078 0C242.837 0 99.1555 143.853 99.1555 321.306C99.1555 498.758 242.837 642.611 420.078 642.611Z" fill="#3F3D56"/>
<path d="M630.333 144H191.667C190.727 143.97 189.98 142.827 190 141.447C190.02 140.107 190.755 139.029 191.667 139H630.333C631.273 139.03 632.02 140.173 632 141.553C631.98 142.893 631.245 143.971 630.333 144Z" fill="#F2F2F2"/>
<path d="M429.445 220.705H266.931C254.724 220.705 244.829 230.612 244.829 242.833V242.833C244.829 255.055 254.724 264.962 266.931 264.962H429.445C441.652 264.962 451.548 255.055 451.548 242.833C451.548 230.612 441.652 220.705 429.445 220.705Z" fill="white"/>
<path d="M161.946 309.219H534.431C546.638 309.219 556.533 319.126 556.533 331.348C556.533 343.569 546.638 353.476 534.431 353.476H161.946C149.739 353.476 139.844 343.569 139.844 331.348C139.844 319.126 149.739 309.219 161.946 309.219V309.219Z" fill="white"/>
<path d="M161.946 397.733H534.431C546.638 397.733 556.533 407.641 556.533 419.862C556.533 432.083 546.638 441.991 534.431 441.991H161.946C149.739 441.991 139.844 432.083 139.844 419.862C139.844 407.641 149.739 397.733 161.946 397.733V397.733Z" fill="white"/>
<path d="M115.786 832.054L114.909 831.968C85.1661 828.896 58.2786 812.88 41.3896 788.176C36.7635 781.293 33.0216 773.854 30.2521 766.034L29.9859 765.288L30.774 765.224C40.183 764.466 49.849 762.868 54.143 762.107L26.4543 752.715L26.2831 751.892C24.6415 744.17 27.8576 736.226 34.4054 731.827C40.9709 727.217 49.6773 727.069 56.3949 731.454C59.4095 733.382 62.5627 735.292 65.6118 737.139C76.09 743.484 86.9251 750.046 95.0486 759.025C107.367 772.911 112.766 791.623 109.743 809.947L115.786 832.054Z" fill="#F2F2F2"/>
<path d="M216.433 818.268L230.079 818.266L236.572 765.565L216.429 765.566L216.433 818.268Z" fill="#A0616A"/>
<path d="M215.952 832.52L257.917 832.519V831.988C257.917 822.956 250.604 815.635 241.583 815.634H241.582L233.917 809.812L219.615 815.635L215.951 815.635L215.952 832.52V832.52Z" fill="#2F2E41"/>
<path d="M107.068 780.424L117.983 788.623L154.767 750.368L138.655 738.268L107.068 780.424Z" fill="#A0616A"/>
<path d="M98.1396 791.537L131.709 816.75L132.027 816.325C137.44 809.101 135.98 798.85 128.764 793.43L128.763 793.429L126.122 784.166L111.191 780.231L108.26 778.03L98.1397 791.537H98.1396Z" fill="#2F2E41"/>
<path d="M152.431 570.953C152.431 570.953 153.184 591.527 154.135 608.027C154.291 610.733 147.959 613.672 148.123 616.616C148.231 618.569 149.422 620.468 149.532 622.504C149.649 624.653 148.006 626.556 148.123 628.778C148.237 630.95 150.112 633.44 150.225 635.663C151.442 659.583 155.853 688.218 151.436 696.223C149.259 700.168 121.51 754.823 121.51 754.823C121.51 754.823 136.97 778.041 141.388 770.302C147.222 760.079 192.187 712.255 192.187 703.122C192.187 694 202.59 625.638 202.59 625.638L209.844 666.094L213.17 674.11L212.124 678.816L214.274 685.166L214.39 691.451L216.483 703.122C216.483 703.122 210.188 794.051 213.733 796.583C217.289 799.126 234.505 803.692 236.537 799.126C238.558 794.56 251.713 704.228 251.713 704.228C251.713 704.228 253.833 662.832 256.13 624.355C256.262 622.122 257.831 619.424 257.952 617.224C258.096 614.67 257.102 611.353 257.234 608.876C257.378 606.035 258.637 604.033 258.758 601.314C259.697 580.295 254.428 554.7 252.749 552.179C247.68 544.572 243.119 538.491 243.119 538.491C243.119 538.491 174.847 516.033 156.603 538.853L152.431 570.953L152.431 570.953Z" fill="#2F2E41"/>
<path d="M220.524 359.386L193.459 353.967L180.829 371.128C157.262 394.329 156.907 414.805 161.114 447.627V493.692L158.069 524.572C158.069 524.572 147.29 547.146 158.408 552.402C169.525 557.658 242.553 557.21 249.525 555.112C256.498 553.013 250.454 550.438 248.623 540.66C245.184 522.293 247.485 531.153 247.721 525.305C251.115 441.419 243.21 406.981 242.408 397.929L228.644 372.935L220.524 359.386V359.386Z" fill="#3F3D56"/>
<path d="M363.172 427.021C360.351 432.372 353.732 434.421 348.387 431.597C347.817 431.296 347.275 430.945 346.767 430.548L288.318 467.705L288.487 447.474L345.265 414.486C349.309 409.946 356.264 409.548 360.798 413.597C364.593 416.985 365.574 422.535 363.172 427.021V427.021Z" fill="#A0616A"/>
<path d="M199.155 382.814L192.501 382.108C186.352 381.47 180.32 384.106 176.607 389.054C175.185 390.931 174.163 393.08 173.606 395.369L173.602 395.387C171.933 402.275 174.551 409.494 180.246 413.705L203.229 430.67C219.357 452.49 249.669 466.966 285.226 478.727L340.494 444.361L320.945 420.657L283.037 440.998L226.688 397.326L226.656 397.3L205.209 383.466L199.155 382.814L199.155 382.814Z" fill="#3F3D56"/>
<path d="M211.379 346.08C228.81 346.08 242.94 331.933 242.94 314.481C242.94 297.03 228.81 282.882 211.379 282.882C193.948 282.882 179.818 297.03 179.818 314.481C179.818 331.933 193.948 346.08 211.379 346.08Z" fill="#A0616A"/>
<path d="M212.108 346.087C211.854 346.095 211.599 346.101 211.344 346.108C211.235 346.391 211.117 346.672 210.981 346.947L212.108 346.087V346.087Z" fill="#2F2E41"/>
<path d="M220.77 315.358C220.819 315.669 220.895 315.976 220.996 316.274C220.954 315.961 220.879 315.654 220.77 315.358Z" fill="#2F2E41"/>
<path d="M243.343 284.234C242.044 288.273 240.885 283.15 236.611 284.071C231.47 285.18 225.488 284.799 221.278 281.644C215.005 277.036 206.876 275.796 199.517 278.323C192.313 280.875 180.244 282.674 178.367 290.09C177.715 292.668 177.456 295.465 175.874 297.602C174.491 299.47 172.309 300.535 170.484 301.972C164.322 306.827 169.032 320.618 171.948 327.905C174.865 335.192 181.555 340.501 188.911 343.22C196.027 345.851 203.752 346.315 211.344 346.108C212.664 342.679 212.094 338.719 211.004 335.164C209.825 331.316 208.078 327.602 207.586 323.607C207.093 319.612 208.175 315.075 211.521 312.843C214.596 310.791 219.6 312.041 220.77 315.358C220.087 311.211 224.283 307.198 228.61 306.492C233.255 305.734 237.9 307.413 242.532 308.249C247.164 309.085 245.52 289.561 243.343 284.234V284.234Z" fill="#2F2E41"/>
<path d="M419.858 366.752C422.8 331.16 396.366 299.919 360.816 296.973C325.266 294.027 294.062 320.493 291.12 356.085C288.178 391.677 314.612 422.919 350.162 425.864C385.712 428.81 416.916 402.345 419.858 366.752Z" fill="#1890FF"/>
<path d="M372.455 334.475L355.489 351.461L338.523 334.475C335.776 331.725 331.323 331.725 328.577 334.475C325.83 337.224 325.83 341.683 328.577 344.432L345.543 361.419L328.577 378.405C325.833 381.158 325.837 385.616 328.586 388.363C331.332 391.106 335.777 391.106 338.523 388.363L355.489 371.376L372.455 388.363C375.204 391.11 379.657 391.106 382.401 388.354C385.141 385.605 385.141 381.154 382.401 378.405L365.435 361.419L382.401 344.432C385.147 341.683 385.147 337.224 382.401 334.475C379.655 331.725 375.202 331.725 372.455 334.475V334.475Z" fill="white"/>
<path d="M330.037 307.067C331.941 312.809 328.834 319.009 323.099 320.916C322.488 321.119 321.859 321.268 321.222 321.36L307.538 389.311L293.073 375.184L308.605 311.325C308.133 305.26 312.661 299.96 318.718 299.488C323.787 299.092 328.466 302.226 330.037 307.067V307.067Z" fill="#A0616A"/>
<path d="M184.625 394.959L179.51 399.278C174.793 403.278 172.517 409.461 173.513 415.569C173.881 417.896 174.723 420.122 175.986 422.108L175.997 422.124C179.806 428.099 186.821 431.205 193.799 430.006L221.937 425.147C248.83 428.6 280.249 416.722 313.341 399.176L326.834 335.455L296.217 333.168L284.633 374.638L214.146 385.114L214.105 385.119L189.286 391.036L184.625 394.959L184.625 394.959Z" fill="#3F3D56"/>
<path d="M344.848 833.611L1.49954 834C0.668689 833.997 -0.00268314 833.321 8.06256e-06 832.489C0.00267399 831.661 0.672467 830.99 1.49954 830.988L344.848 830.599C345.679 830.602 346.351 831.278 346.348 832.11C346.345 832.938 345.675 833.609 344.848 833.611Z" fill="#CACACA"/>
<path d="M576.92 94.1326H563.514C561.985 94.1326 560.747 95.3722 560.747 96.9029V110.337C560.747 111.868 561.985 113.107 563.514 113.107H576.92C578.448 113.107 579.699 111.868 579.699 110.337V96.9029C579.699 95.3722 578.448 94.1326 576.92 94.1326Z" fill="#F2F2F2"/>
<path d="M544.069 94.1326H530.664C529.135 94.1326 527.897 95.3722 527.897 96.9029V110.337C527.897 111.868 529.135 113.107 530.664 113.107H544.069C545.598 113.107 546.849 111.868 546.849 110.337V96.9029C546.849 95.3722 545.598 94.1326 544.069 94.1326Z" fill="#F2F2F2"/>
<path d="M607.875 94.7651H594.469C592.94 94.7651 591.702 96.0047 591.702 97.5354V110.969C591.702 112.5 592.94 113.74 594.469 113.74H607.875C609.403 113.74 610.654 112.5 610.654 110.969V97.5354C610.654 96.0047 609.403 94.7651 607.875 94.7651Z" fill="#F2F2F2"/>
<path d="M405.818 99.8755H298.663C296.793 99.8755 295.289 101.394 295.289 103.253C295.289 105.113 296.793 106.631 298.663 106.631H405.818C407.675 106.631 409.191 105.113 409.191 103.253C409.191 101.394 407.675 99.8755 405.818 99.8755Z" fill="#F2F2F2"/>
</g>
<defs>
<clipPath id="clip0_2533_129986">
<rect width="741" height="834" fill="white"/>
</clipPath>
</defs>
</svg>
