<svg fill="none" height="44" viewBox="-10 -10 65 63" width="48" xmlns="http://www.w3.org/2000/svg"><g fill="#234b78"><path d="m40.1063 14.3608c-3.5411 0-6.4123-2.871-6.4123-6.41234 0-1.39835.4491-2.69107 1.2087-3.74482-3.6262-2.64478-8.1007-4.20364-12.9633-4.20364-12.22304 0-21.9394 9.83889-21.9394 22.0611 0 12.222 9.71636 21.9389 21.9394 21.9389 12.222 0 21.9996-9.7169 21.9996-21.9389 0-2.874-.5406-5.6161-1.5267-8.1295-.7158.2762-1.4926.4292-2.306.4292zm-18.1669 19.8613c-6.6618 0-12.1615-5.5002-12.1615-12.1607 0-6.7228 5.5002-12.2835 12.1613-12.2835 6.7214 0 12.2214 5.5612 12.2214 12.2835 0 6.6607-5.5003 12.1613-12.2226 12.1613l.0012-.0006z"/><path d="m40.0958.0501404c-4.388 0-7.8761 3.5319096-7.8761 7.9199096 0 4.38795 3.4881 7.87605 7.8761 7.87605s7.8983-3.4881 7.8983-7.87605c0-4.388-3.5103-7.9199096-7.8983-7.9199096zm-.0039 13.7436596c-3.1854 0-5.8163-2.6303-5.8163-5.81627 0-3.21448 2.6309-5.87395 5.8163-5.87395 3.215 0 5.8454 2.65947 5.8454 5.87451 0 3.18541-2.6304 5.81571-5.8454 5.81571z"/></g></svg>